<svg xmlns="http://www.w3.org/2000/svg" width="149.489" height="29.052" viewBox="0 0 149.489 29.052">
  <g id="Group_44" data-name="Group 44" transform="translate(-44.039 36.94)">
    <path id="Path_39" data-name="Path 39" d="M351.7,328.792V315.709h-2.5v13.083h0v2.374h11.1v-2.374Z" transform="translate(-219.509 -352.648)"/>
    <path id="Path_40" data-name="Path 40" d="M222.479,315.709v11.783l-8.021-11.783h-2.729v15.457h2.5V319.38l8.021,11.783h.23v0h2.5V315.709Z" transform="translate(-126.854 -352.648)"/>
    <path id="Path_41" data-name="Path 41" d="M298.3,331.164v0h2.5v0h.23l5-7.344,5,7.344h.23v0h2.5V315.709h-2.5v11.784l-3.865-5.678-1.365-2-1.365,2-3.865,5.678V316.138l-.291-.427h0l.291.427v-.427h0v0h-2.5v15.456Z" transform="translate(-185.204 -352.648)"/>
    <path id="Path_42" data-name="Path 42" d="M170.163,315.709v15.457h2.5V315.709Z" transform="translate(-98.839 -352.648)"/>
    <path id="Path_43" data-name="Path 43" d="M180.944,336.026h-3.115l7.407,8.83h3.308Z" transform="translate(-104.005 -366.341)"/>
    <path id="Path_44" data-name="Path 44" d="M193.906,315.706h-2.729l-3.548,6.623h2.922Z" transform="translate(-110.61 -352.646)"/>
    <path id="Path_45" data-name="Path 45" d="M397.276,317.916v-2.207H386.284v15.456h10.992v-2.207h-8.493v-4.93h7.389V321.82h-7.389v-3.9Z" transform="translate(-244.5 -352.648)"/>
    <path id="Path_46" data-name="Path 46" d="M522.276,317.916v-2.207H511.284v15.456h10.992v-2.207h-8.493v-4.93h7.389V321.82h-7.389v-3.9Z" transform="translate(-328.748 -352.648)"/>
    <path id="Path_47" data-name="Path 47" d="M430.033,315.709h-6.625v15.457h6.625a6.644,6.644,0,0,0,6.624-6.624v-2.208A6.644,6.644,0,0,0,430.033,315.709Zm3.938,9.43a3.83,3.83,0,0,1-3.819,3.819h-4.245V317.917h4.245a3.83,3.83,0,0,1,3.819,3.819Z" transform="translate(-269.521 -352.648)"/>
    <path id="Path_48" data-name="Path 48" d="M478.011,322.333h-4.085v2.208h4.085v.328a4.1,4.1,0,0,1-4.085,4.085h0a4.1,4.1,0,0,1-4.085-4.085v-2.863a4.1,4.1,0,0,1,4.085-4.085h0a4.094,4.094,0,0,1,3.62,2.2h2.689a6.412,6.412,0,0,0-6.073-4.416h-.472A6.407,6.407,0,0,0,467.3,322.1v2.681a6.407,6.407,0,0,0,6.388,6.388h.472a6.407,6.407,0,0,0,6.388-6.388v-2.445Z" transform="translate(-299.104 -352.648)"/>
    <path id="Path_49" data-name="Path 49" d="M134.335,315.709h-.472a6.407,6.407,0,0,0-6.388,6.388v2.681a6.407,6.407,0,0,0,6.388,6.388h.472a6.407,6.407,0,0,0,6.389-6.388V322.1A6.407,6.407,0,0,0,134.335,315.709Zm3.849,9.16a4.1,4.1,0,0,1-4.085,4.085h0a4.1,4.1,0,0,1-4.085-4.085v-2.863a4.1,4.1,0,0,1,4.085-4.085h0a4.1,4.1,0,0,1,4.085,4.085Z" transform="translate(-70.068 -352.648)" fill="#73c92d"/>
    <path id="Path_50" data-name="Path 50" d="M261.86,315.709h-.472A6.407,6.407,0,0,0,255,322.1v2.681a6.407,6.407,0,0,0,6.389,6.388h.472a6.407,6.407,0,0,0,6.388-6.388V322.1A6.407,6.407,0,0,0,261.86,315.709Zm3.849,9.16a4.1,4.1,0,0,1-4.085,4.085h0a4.1,4.1,0,0,1-4.085-4.085v-2.863a4.1,4.1,0,0,1,4.085-4.085h0a4.1,4.1,0,0,1,4.085,4.085Z" transform="translate(-156.017 -352.648)"/>
    <path id="Path_51" data-name="Path 51" d="M98.12,323.384c-.05-.034-.1-.066-.152-.1.067-.054.132-.11.195-.167a4.044,4.044,0,0,0,1.393-2.992,4.416,4.416,0,0,0-4.416-4.416H87.871v15.457h7.781a4.412,4.412,0,0,0,4.417-4.416A4.117,4.117,0,0,0,98.12,323.384Zm-7.662-5.467h4.536c.023,0,.047,0,.07,0a2.216,2.216,0,0,1,0,4.409c-.023,0-.047,0-.07,0H90.459Zm5.123,11.037c-.022,0-.044,0-.066,0H90.459v-4.416h5.058c.022,0,.044,0,.066,0a2.215,2.215,0,0,1,0,4.409Z" transform="translate(-43.375 -352.648)" fill="#73c92d"/>
    <rect id="Rectangle_112" data-name="Rectangle 112" width="68.546" height="6.231" rx="3.116" transform="translate(44.039 -14.119)" fill="#73c92d"/>
    <circle id="Ellipse_31" data-name="Ellipse 31" cx="3.116" cy="3.116" r="3.116" transform="translate(92.853 -14.119)" fill="#e7f0ac"/>
    <circle id="Ellipse_32" data-name="Ellipse 32" cx="3.116" cy="3.116" r="3.116" transform="translate(44.039 -14.119)" fill="#bddc04"/>
    <circle id="Ellipse_33" data-name="Ellipse 33" cx="3.116" cy="3.116" r="3.116" transform="translate(104.277 -14.119)" fill="#2d9da5"/>
  </g>
</svg>
