<svg id="Group_34" data-name="Group 34" xmlns="http://www.w3.org/2000/svg" width="55.053" height="61.388" viewBox="0 0 55.053 61.388">
  <g id="Component_7_1" data-name="Component 7 – 1" transform="translate(0)">
    <path id="Path_29" data-name="Path 29" d="M352.284,70.824l-26.51-11.236a2.842,2.842,0,0,0-3.728,1.508l-2.379,5.61,19.83,3.1A5.41,5.41,0,0,1,344,75.977L340.452,98.7l2.228,2.068,11.112-26.218A2.843,2.843,0,0,0,352.284,70.824Z" transform="translate(-298.965 -59.361)" fill="#909090"/>
    <path id="Path_30" data-name="Path 30" d="M310.9,69.171a6.166,6.166,0,0,1,4.166,1.589l3.446,3.2L340.9,94.741l3.284-21.018a2.923,2.923,0,0,0,.032-.576,2.847,2.847,0,0,0-2.4-2.673l-18.965-2.962-1.5-.234-7.985-1.247a2.876,2.876,0,0,0-.442-.035c-.024,0-.047.005-.072.006-.074,0-.146.012-.219.019-.1.012-.21.024-.312.046-.073.017-.145.038-.215.06a2.706,2.706,0,0,0-.285.1q-.1.044-.2.1a2.875,2.875,0,0,0-.256.152c-.063.042-.124.083-.182.129a2.841,2.841,0,0,0-.228.2c-.051.051-.1.1-.152.155a2.856,2.856,0,0,0-.193.252c-.04.058-.082.111-.118.172a3.07,3.07,0,0,0-.157.319c-.023.055-.052.106-.073.163a2.838,2.838,0,0,0-.138.526V68.4l-.12.769h.908Z" transform="translate(-301.675 -57.502)" fill="#909090"/>
    <path id="Path_31" data-name="Path 31" d="M349.568,103.337l-3.419-3.175-1.641-1.523-2.263-2.1-22.97-21.327-4.126-3.832a3.155,3.155,0,0,0-.511-.384,3.7,3.7,0,0,0-1.913-.52h-5.954a3.687,3.687,0,0,0-1.829.471,3.2,3.2,0,0,0-.485.337,2.558,2.558,0,0,0-.959,1.954v41.636a2.558,2.558,0,0,0,.959,1.954,3.3,3.3,0,0,0,.485.337,3.687,3.687,0,0,0,1.829.471h40.375a3.8,3.8,0,0,0,1.274-.216,3.361,3.361,0,0,0,1.041-.591,2.558,2.558,0,0,0,.959-1.954v-9.68a2.447,2.447,0,0,0-.486-1.448A2.789,2.789,0,0,0,349.568,103.337Z" transform="translate(-303.496 -56.247)" fill="#909090"/>
  </g>
</svg>
