<?xml version="1.0" encoding="utf-8"?>
<!-- Generator: Adobe Illustrator 24.0.3, SVG Export Plug-In . SVG Version: 6.00 Build 0)  -->
<svg version="1.1" id="Component_8_1" xmlns="http://www.w3.org/2000/svg" xmlns:xlink="http://www.w3.org/1999/xlink" x="0px"
	 y="0px" viewBox="0 0 31 31" style="enable-background:new 0 0 31 31;" xml:space="preserve">
<style type="text/css">
	.st0{fill:#909090;}
</style>
<g>
	<path id="Rectangle_30" class="st0" d="M9.8,16.3h11.4c2.2,0,4,1.8,4,4v4.7c0,2.2-1.8,4-4,4H9.8c-2.2,0-4-1.8-4-4v-4.7
		C5.8,18.1,7.6,16.3,9.8,16.3z"/>
	<path id="Path_27" class="st0" d="M28,7.7h-1.2V6.2c0-2.2-1.8-4.1-4.1-4.1H8.9c-2.2,0-4.1,1.8-4.1,4.1v1.5H3c-1.6,0-3,1.3-3,3
		c0,0,0,0,0,0v11.2c0,1.6,1.3,3,3,3l0,0h1.5v-6c0-2.1,1.7-3.8,3.8-3.8h14.2c2.1,0,3.8,1.7,3.8,3.8v6H28c1.6,0,3-1.3,3-3c0,0,0,0,0,0
		V10.7C31,9,29.6,7.7,28,7.7z M6.8,6.2C6.8,5,7.7,4,8.9,4h13.8c1.2,0,2.1,1,2.1,2.1v1.5H6.8L6.8,6.2z M4.8,13.5
		c-0.8,0-1.4-0.6-1.4-1.4c0-0.8,0.6-1.4,1.4-1.4c0,0,0,0,0.1,0c0.8,0,1.4,0.7,1.3,1.4C6.2,12.9,5.6,13.5,4.8,13.5L4.8,13.5z"/>
</g>
</svg>
