<?xml version="1.0" encoding="utf-8"?>
<!-- Generator: Adobe Illustrator 24.0.3, SVG Export Plug-In . SVG Version: 6.00 Build 0)  -->
<svg version="1.1" id="Group_58" xmlns="http://www.w3.org/2000/svg" xmlns:xlink="http://www.w3.org/1999/xlink" x="0px" y="0px"
	 viewBox="0 0 31 31" style="enable-background:new 0 0 31 31;" xml:space="preserve">
<style type="text/css">
	.st0{fill:#909090;}
</style>
<g>
	<path id="Path_40" class="st0" d="M23.6,2.7h-3.4V2.4c0-1.3-1-2.3-2.3-2.3h-5c-1.3,0-2.3,1-2.3,2.3v0.3H7.4c-1.5,0-2.8,1.1-2.8,2.7
		v1.1h21.9V5.4C26.4,3.9,25.1,2.7,23.6,2.7z M12.5,2.6c0-0.9,0.7-1.5,1.5-1.6h2.9c0.9,0,1.5,0.7,1.5,1.6v0.1L12.5,2.6L12.5,2.6z"/>
	<path id="Path_41" class="st0" d="M5.6,7.5l2,21.3c0.1,1.2,1,2,2.2,2.1h11.5c1.2,0,2.1-0.9,2.2-2.1l2-21.3H5.6z M10.7,29.1
		c-0.5,0-0.9-0.3-0.9-0.7L8.4,9.6c0,0,0,0,0-0.1h1.7l1.4,18.7C11.6,28.7,11.2,29.1,10.7,29.1C10.8,29.1,10.7,29.1,10.7,29.1z
		 M16.4,28.4c0,0.5-0.4,0.8-0.8,0.8c-0.5,0-0.9-0.4-0.9-0.8V9.6c0,0,0-0.1,0-0.1h1.7c0,0,0,0.1,0,0.1L16.4,28.4z M22.6,9.6
		l-1.4,18.8c0,0.5-0.5,0.8-0.9,0.7c-0.5,0-0.8-0.4-0.8-0.8c0,0,0,0,0,0l1.4-18.7L22.6,9.6C22.6,9.5,22.6,9.6,22.6,9.6L22.6,9.6z"/>
</g>
</svg>
