<svg xmlns="http://www.w3.org/2000/svg" width="50" height="50" viewBox="0 0 50 50">
  <g id="Group_41" data-name="Group 41" transform="translate(-1120 -123)">
    <g id="Group_40" data-name="Group 40" transform="translate(148)">
      <circle id="Ellipse_7" data-name="Ellipse 7" cx="25" cy="25" r="25" transform="translate(972 123)" fill="#909090"/>
    </g>
    <path id="Path_38" data-name="Path 38" d="M22.627,17.942l-4.9-3.748A9.477,9.477,0,0,0,2.786,2.8a9.382,9.382,0,0,0,0,13.394,9.425,9.425,0,0,0,6.7,2.8,9.144,9.144,0,0,0,4.648-1.249l3.748,4.9a3.383,3.383,0,0,0,5.1.35A3.326,3.326,0,0,0,22.627,17.942Zm-13.144-.95a7.5,7.5,0,1,1,5.3-2.2A7.489,7.489,0,0,1,9.483,16.992Z" transform="translate(1133.025 136)" fill="#fff"/>
  </g>
</svg>
