<?xml version="1.0" encoding="utf-8"?>
<!-- Generator: Adobe Illustrator 24.0.3, SVG Export Plug-In . SVG Version: 6.00 Build 0)  -->
<svg version="1.1" id="圖層_1" xmlns="http://www.w3.org/2000/svg" xmlns:xlink="http://www.w3.org/1999/xlink" x="0px" y="0px"
	 viewBox="0 0 47.6 61.1" style="enable-background:new 0 0 47.6 61.1;" xml:space="preserve">
<style type="text/css">
	.st0{fill:#909090;}
</style>
<g id="Group_35" transform="translate(-126.834 -121.725)">
	<path id="Path_32" class="st0" d="M136,155.8h0.3c1.2,3.8,4.6,6.3,8.5,6.3c1.4,0,2.5-1.2,2.5-2.6c0-1.4-1.1-2.5-2.5-2.5
		c-2.1,0-3.8-1.7-3.8-3.8v-14c0-2.1,1.7-3.8,3.8-3.8h20.7c2.1,0,3.8,1.7,3.8,3.8v14c0,2.1-1.7,3.8-3.8,3.8c-1.4,0-2.5,1.2-2.5,2.6
		c0,1.4,1.1,2.5,2.5,2.5c4.9,0,8.9-4,8.9-8.9v-14c0-4.9-4-8.9-8.9-8.9h-0.2c-0.3-4.8-4.3-8.5-9.2-8.5h-12.4
		c-9.3,0-16.9,7.6-16.9,16.9v8C126.8,151.7,131,155.8,136,155.8z M132,138.6c0-6.5,5.3-11.8,11.8-11.8h12.4c2,0,3.7,1.4,4,3.4h-15.3
		c-4.9,0-8.9,4-8.9,8.9v11.5c-2.2-0.1-3.9-1.9-3.9-4L132,138.6z"/>
	<path id="Path_33" class="st0" d="M159.9,147.8c0-1.5-1.3-2.8-2.8-2.8l0,0h-4.4c-1.5,0-2.8,1.3-2.8,2.8l0,0v18.7h-8.3l13.3,16.3
		l13.3-16.3h-8.3V147.8z"/>
</g>
</svg>
