<svg height="21.19" viewBox="0 0 15.088 21.19" width="15.088" xmlns="http://www.w3.org/2000/svg"><g fill="#fff"><path d="m166.394 105.9h-2.32v-.191a1.574 1.574 0 0 0 -1.56-1.579h-3.431a1.574 1.574 0 0 0 -1.56 1.579v.191h-2.323a1.9 1.9 0 0 0 -1.949 1.838v.735h15.088v-.735a1.9 1.9 0 0 0 -1.945-1.838zm-7.652-.051a1.071 1.071 0 0 1 1.061-1.074h1.997a1.071 1.071 0 0 1 1.061 1.074v.051h-4.115z" transform="translate(-153.255 -104.134)"/><path d="m162.588 168.952 1.355 14.693a1.573 1.573 0 0 0 1.51 1.442h7.9a1.573 1.573 0 0 0 1.51-1.442l1.355-14.693zm3.533 14.925a.575.575 0 0 1 -.625-.51l-.991-12.958c0-.013 0-.027 0-.04h1.171l.988 12.918a.563.563 0 0 1 -.543.59zm3.868-.463a.586.586 0 0 1 -1.17 0v-12.991a.532.532 0 0 1 0-.054h1.164a.537.537 0 0 1 0 .054zm4.315-13.006-.991 12.958a.575.575 0 0 1 -.625.51.563.563 0 0 1 -.541-.59l.988-12.918h1.171c-.001.014-.001.032-.006.041z" transform="translate(-161.86 -163.897)"/></g></svg>