<?xml version="1.0" encoding="utf-8"?>
<!-- Generator: Adobe Illustrator 24.0.3, SVG Export Plug-In . SVG Version: 6.00 Build 0)  -->
<svg version="1.1" id="Component_11_1" xmlns="http://www.w3.org/2000/svg" xmlns:xlink="http://www.w3.org/1999/xlink" x="0px"
	 y="0px" viewBox="0 0 31 31" style="enable-background:new 0 0 31 31;" xml:space="preserve">
<style type="text/css">
	.st0{fill:#909090;}
</style>
<g>
	<g>
		<path class="st0" d="M13.6,22L13.6,22C13.6,22,13.7,22,13.6,22c0.2,0.1,0.3,0.2,0.4,0.3c0,0,0.1,0,0.1,0.1
			c0.1,0.1,0.2,0.1,0.3,0.1s0.1,0,0.2,0c0.1,0,0.2,0.1,0.3,0.1s0.1,0,0.2,0c0.1,0,0.2,0,0.3,0s0.2,0,0.3,0c0.1,0,0.1,0,0.2,0
			c0.1,0,0.2,0,0.3-0.1c0.1,0,0.1,0,0.2,0s0.2-0.1,0.3-0.1c0,0,0.1,0,0.1-0.1c0.1-0.1,0.2-0.1,0.3-0.2c0,0,0.1,0,0.1-0.1l0,0
			l9.2-8.5c1.1-1,1.1-2.6,0-3.6c-1.1-1-2.9-1-4,0l-4.5,4.2v-11l0,0c-0.1-1.3-1.3-2.4-2.7-2.4c-1.5,0-2.7,1.1-2.7,2.4l0,0V14L8.4,9.9
			c-1.1-1-2.9-1-4,0c-1.1,1-1.1,2.6,0,3.6L13.6,22z"/>
		<g>
			<path class="st0" d="M29.4,22.8c0-1.6-2.9-1.6-2.9,0c0,1.1,0.3,2.5-0.5,3.4c-0.5,0.7-1.5,0.4-2.4,0.4c-2.7,0-5.4,0-8.1,0
				s-5.4,0-8.1,0c-0.9,0-1.6,0.1-2.4-0.4c-0.9-0.7-0.5-2.5-0.5-3.4c0-1.6-2.9-1.6-2.9,0c0,1.5-0.1,2.9,0.5,4.3s2.6,2.2,4.3,2.2
				c3,0,5.9,0,9,0c3,0,5.9,0,9,0c1.9,0,3.3-0.9,4.3-2.2C29.7,25.8,29.4,24.1,29.4,22.8z"/>
			<path class="st0" d="M24.4,30.3h-18c-1.9,0-4.3-0.9-5.2-2.8c-0.7-1.5-0.7-2.8-0.6-4.2l0-0.6c0-1.3,1.1-2.3,2.5-2.3s2.5,1,2.5,2.3
				c0,0.2,0,0.4,0,0.7c0,0.4-0.1,1.7,0.2,1.9c0.3,0.2,0.7,0.3,1.4,0.2l0.4,0h16.3c0.2,0,0.4,0,0.6,0c0.4,0,0.9,0,1-0.1
				c0.4-0.4,0.4-1,0.3-2c0-0.3,0-0.5,0-0.8c0-1.3,1.1-2.3,2.5-2.3c1.4,0,2.5,1,2.5,2.3c0,0.2,0,0.4,0,0.6c0,1.3,0.1,2.9-1,4.3
				C28.2,29.4,26.5,30.3,24.4,30.3z M3,22.6c0,0-0.4,0-0.4,0.2l0,0.6c0,1.2,0,2.2,0.5,3.3c0.5,1,2.1,1.6,3.3,1.6h18
				c1.4,0,2.6-0.6,3.5-1.8c0.6-0.8,0.6-1.9,0.6-3c0-0.2,0-0.4,0-0.6c0-0.2-0.4-0.2-0.4-0.2s-0.4,0-0.4,0.2c0,0.2,0,0.4,0,0.7
				c0.1,1,0.1,2.4-0.9,3.5c-0.7,0.9-1.8,0.8-2.7,0.8c-0.2,0-0.3,0-0.5,0L7,27.7c-0.8,0-1.7,0-2.7-0.6c-1.2-0.9-1.1-2.6-1-3.7
				c0-0.2,0-0.4,0-0.5c0-0.1,0-0.1,0-0.1C3.3,22.6,3.1,22.6,3,22.6z"/>
		</g>
	</g>
</g>
</svg>
