<?xml version="1.0" encoding="utf-8"?>
<!-- Generator: Adobe Illustrator 24.0.3, SVG Export Plug-In . SVG Version: 6.00 Build 0)  -->
<svg version="1.1" id="Component_11_1" xmlns="http://www.w3.org/2000/svg" xmlns:xlink="http://www.w3.org/1999/xlink" x="0px"
	 y="0px" viewBox="0 0 27 27" style="enable-background:new 0 0 27 27;" xml:space="preserve">
<style type="text/css">
	.st0{fill:#909090;}
</style>
<g id="Group_35" transform="translate(-126.834 -121.725)">
	<path id="Path_32" class="st0" d="M130.9,139.8h0.1c0.5,1.7,2,2.8,3.8,2.8c0.6,0,1.1-0.5,1.1-1.2c0-0.6-0.5-1.1-1.1-1.1
		c-0.9,0-1.7-0.8-1.7-1.7v-9.2c0-0.9,0.8-1.7,1.7-1.7h15.1c0.9,0,1.7,0.8,1.7,1.7v9.2c0,0.9-0.7,1.7-1.7,1.7c-0.6,0-1.1,0.5-1.1,1.2
		c0,0.6,0.5,1.1,1.1,1.1c2.2,0,3.9-1.8,3.9-3.9v-9.2c0-2.2-1.8-3.9-3.9-3.9h-0.1c-0.1-2.1-1.9-3.8-4-3.8h-11.5
		c-4.1,0-7.5,3.3-7.5,7.5v6.5C126.8,138,128.7,139.8,130.9,139.8z M129.1,129.2c0-2.9,2.3-5.2,5.2-5.2h11.5c0.9,0,1.6,0.6,1.8,1.5
		h-12.8c-2.2,0-3.9,1.8-3.9,3.9v8.1c-1,0-1.7-0.8-1.7-1.8L129.1,129.2z"/>
	<path id="Path_33" class="st0" d="M144.4,131.5c0-0.7-0.6-1.2-1.2-1.2l0,0h-2c-0.7,0-1.2,0.6-1.2,1.2l0,0v10h-3.7l5.9,7.2l5.9-7.2
		h-3.7V131.5z"/>
</g>
</svg>
