<?xml version="1.0" encoding="utf-8"?>
<!-- Generator: Adobe Illustrator 24.0.3, SVG Export Plug-In . SVG Version: 6.00 Build 0)  -->
<svg version="1.1" id="圖層_1" xmlns="http://www.w3.org/2000/svg" xmlns:xlink="http://www.w3.org/1999/xlink" x="0px" y="0px"
	 viewBox="0 0 31 31" style="enable-background:new 0 0 31 31;" xml:space="preserve">
<style type="text/css">
	.st0{fill:#909090;}
	.st1{fill:#FFFFFF;}
</style>
<g id="Group_60" transform="translate(-0.219 0)">
	<path id="Path_42" class="st0" d="M30.7,15.5c0,8.3-6.7,15-15,15c-4.8,0-9.3-2.3-12.1-6.1c-0.3-0.4-0.5-0.7-0.8-1.1
		c-0.1-0.2-0.2-0.3-0.3-0.5c-4-7.3-1.3-16.4,6-20.4c4.4-2.4,9.7-2.5,14.2-0.1C23.2,2.4,23.6,2.7,24,3C28.2,5.7,30.7,10.4,30.7,15.5
		L30.7,15.5z"/>
	<rect id="Rectangle_142" x="6.7" y="12.7" class="st1" width="18.6" height="5.4"/>
</g>
</svg>
